<svg width="558" height="249" viewBox="0 0 558 249" fill="none" xmlns="http://www.w3.org/2000/svg">
<path d="M9.75 44.6667L32.5 34L68.25 44.6667M9.75 44.6667V58L45.5 68.6667L68.25 58V44.6667M9.75 44.6667L45.5 55.3333L68.25 44.6667" stroke="#33363F" stroke-width="2" stroke-linejoin="round"/>
<path d="M9.75 58V71.3333L45.5 82L68.25 71.3333V58" stroke="#33363F" stroke-width="2" stroke-linejoin="round"/>
<path d="M149.354 58.3536C149.549 58.1583 149.549 57.8417 149.354 57.6464L146.172 54.4645C145.976 54.2692 145.66 54.2692 145.464 54.4645C145.269 54.6597 145.269 54.9763 145.464 55.1716L148.293 58L145.464 60.8284C145.269 61.0237 145.269 61.3403 145.464 61.5355C145.66 61.7308 145.976 61.7308 146.172 61.5355L149.354 58.3536ZM75 58.5H149V57.5H75V58.5Z" fill="#5201FE"/>
<path d="M250.5 58H251V57.5H250.5V58ZM250.5 126H250V126.5H250.5V126ZM330.354 126.354C330.549 126.158 330.549 125.842 330.354 125.646L327.172 122.464C326.976 122.269 326.66 122.269 326.464 122.464C326.269 122.66 326.269 122.976 326.464 123.172L329.293 126L326.464 128.828C326.269 129.024 326.269 129.34 326.464 129.536C326.66 129.731 326.976 129.731 327.172 129.536L330.354 126.354ZM212 58.5H250.5V57.5H212V58.5ZM250 58V126H251V58H250ZM250.5 126.5H330V125.5H250.5V126.5Z" fill="#5201FE"/>
<path d="M212 193H250.5V125" stroke="#5201FE"/>
<path d="M9.75 179.667L32.5 169L68.25 179.667M9.75 179.667V193L45.5 203.667L68.25 193V179.667M9.75 179.667L45.5 190.333L68.25 179.667" stroke="#33363F" stroke-width="2" stroke-linejoin="round"/>
<path d="M9.75 193V206.333L45.5 217L68.25 206.333V193" stroke="#33363F" stroke-width="2" stroke-linejoin="round"/>
<path d="M149.354 193.354C149.549 193.158 149.549 192.842 149.354 192.646L146.172 189.464C145.976 189.269 145.66 189.269 145.464 189.464C145.269 189.66 145.269 189.976 145.464 190.172L148.293 193L145.464 195.828C145.269 196.024 145.269 196.34 145.464 196.536C145.66 196.731 145.976 196.731 146.172 196.536L149.354 193.354ZM75 193.5H149V192.5H75V193.5Z" fill="#5201FE"/>
<path d="M169.542 59.3333L186.458 59.3333" stroke="black" stroke-linecap="round"/>
<path d="M169.542 67.3333L179.208 67.3333" stroke="black" stroke-linecap="round"/>
<path d="M162.292 37.7333C162.292 36.8932 162.292 36.4731 162.455 36.1523C162.599 35.87 162.828 35.6406 163.111 35.4967C163.432 35.3333 163.852 35.3333 164.692 35.3333H180.561C180.953 35.3333 181.149 35.3333 181.332 35.38C181.494 35.4215 181.648 35.4897 181.787 35.582C181.945 35.6861 182.076 35.8313 182.339 36.1216L193.087 47.9806C193.317 48.2343 193.431 48.3611 193.513 48.5059C193.586 48.6342 193.64 48.7726 193.672 48.9165C193.708 49.0788 193.708 49.25 193.708 49.5923V78.2666C193.708 79.1067 193.708 79.5267 193.545 79.8476C193.401 80.1298 193.172 80.3593 192.889 80.5031C192.568 80.6666 192.148 80.6666 191.308 80.6666H164.692C163.852 80.6666 163.432 80.6666 163.111 80.5031C162.828 80.3593 162.599 80.1298 162.455 79.8476C162.292 79.5267 162.292 79.1067 162.292 78.2666V37.7333Z" stroke="black"/>
<path d="M179.208 35.3333V48.9333C179.208 49.7733 179.208 50.1934 179.372 50.5142C179.516 50.7965 179.745 51.026 180.027 51.1698C180.348 51.3333 180.768 51.3333 181.608 51.3333H193.708" stroke="black"/>
<path d="M169.542 193.333L186.458 193.333" stroke="black" stroke-linecap="round"/>
<path d="M169.542 201.333L179.208 201.333" stroke="black" stroke-linecap="round"/>
<path d="M162.292 171.733C162.292 170.893 162.292 170.473 162.455 170.152C162.599 169.87 162.828 169.641 163.111 169.497C163.432 169.333 163.852 169.333 164.692 169.333H180.561C180.953 169.333 181.149 169.333 181.332 169.38C181.494 169.421 181.648 169.49 181.787 169.582C181.945 169.686 182.076 169.831 182.339 170.122L193.087 181.981C193.317 182.234 193.431 182.361 193.513 182.506C193.586 182.634 193.64 182.773 193.672 182.917C193.708 183.079 193.708 183.25 193.708 183.592V212.267C193.708 213.107 193.708 213.527 193.545 213.848C193.401 214.13 193.172 214.359 192.889 214.503C192.568 214.667 192.148 214.667 191.308 214.667H164.692C163.852 214.667 163.432 214.667 163.111 214.503C162.828 214.359 162.599 214.13 162.455 213.848C162.292 213.527 162.292 213.107 162.292 212.267V171.733Z" stroke="black"/>
<path d="M179.208 169.333V182.933C179.208 183.773 179.208 184.193 179.372 184.514C179.516 184.796 179.745 185.026 180.027 185.17C180.348 185.333 180.768 185.333 181.608 185.333H193.708" stroke="black"/>
<path d="M29.4986 110H26.5412V101.273H29.5583C30.4247 101.273 31.1691 101.447 31.7912 101.797C32.4162 102.143 32.8963 102.642 33.2316 103.293C33.5668 103.943 33.7344 104.722 33.7344 105.628C33.7344 106.537 33.5654 107.318 33.2273 107.972C32.8921 108.625 32.4077 109.126 31.7742 109.476C31.1435 109.825 30.385 110 29.4986 110ZM28.1222 108.632H29.4219C30.0299 108.632 30.537 108.521 30.9432 108.3C31.3495 108.075 31.6549 107.741 31.8594 107.298C32.0639 106.852 32.1662 106.295 32.1662 105.628C32.1662 104.96 32.0639 104.406 31.8594 103.966C31.6549 103.523 31.3523 103.192 30.9517 102.973C30.554 102.751 30.0597 102.641 29.4688 102.641H28.1222V108.632ZM36.9199 110.132C36.5051 110.132 36.1315 110.058 35.7991 109.911C35.4696 109.76 35.2082 109.538 35.015 109.246C34.8247 108.953 34.7295 108.592 34.7295 108.163C34.7295 107.794 34.7977 107.489 34.9341 107.247C35.0704 107.006 35.2565 106.812 35.4923 106.668C35.7281 106.523 35.9937 106.413 36.2892 106.339C36.5875 106.263 36.8957 106.207 37.2139 106.173C37.5974 106.134 37.9085 106.098 38.1471 106.067C38.3858 106.033 38.5591 105.982 38.667 105.913C38.7778 105.842 38.8332 105.733 38.8332 105.585V105.56C38.8332 105.239 38.7381 104.99 38.5477 104.814C38.3574 104.638 38.0832 104.55 37.7253 104.55C37.3474 104.55 37.0477 104.632 36.8261 104.797C36.6074 104.962 36.4596 105.156 36.3829 105.381L34.9426 105.176C35.0562 104.778 35.2437 104.446 35.5051 104.179C35.7665 103.909 36.0861 103.707 36.4639 103.574C36.8417 103.438 37.2594 103.369 37.7167 103.369C38.0321 103.369 38.346 103.406 38.6585 103.48C38.971 103.554 39.2565 103.676 39.515 103.847C39.7736 104.014 39.981 104.243 40.1372 104.533C40.2963 104.822 40.3758 105.185 40.3758 105.619V110H38.8929V109.101H38.8417C38.748 109.283 38.6159 109.453 38.4454 109.612C38.2778 109.768 38.0662 109.895 37.8105 109.991C37.5577 110.085 37.2608 110.132 36.9199 110.132ZM37.3204 108.999C37.6301 108.999 37.8986 108.937 38.1258 108.815C38.3531 108.69 38.5278 108.526 38.65 108.321C38.775 108.116 38.8375 107.893 38.8375 107.652V106.881C38.7892 106.92 38.7068 106.957 38.5903 106.991C38.4767 107.026 38.3488 107.055 38.2068 107.081C38.0648 107.107 37.9241 107.129 37.7849 107.149C37.6457 107.169 37.525 107.186 37.4227 107.2C37.1926 107.232 36.9866 107.283 36.8048 107.354C36.623 107.425 36.4795 107.524 36.3744 107.652C36.2693 107.777 36.2167 107.939 36.2167 108.138C36.2167 108.422 36.3204 108.636 36.5278 108.781C36.7352 108.926 36.9994 108.999 37.3204 108.999ZM45.0634 103.455V104.648H41.3007V103.455H45.0634ZM42.2296 101.886H43.7722V108.031C43.7722 108.239 43.8035 108.398 43.866 108.509C43.9313 108.616 44.0166 108.69 44.1217 108.73C44.2268 108.77 44.3433 108.79 44.4711 108.79C44.5677 108.79 44.6558 108.783 44.7353 108.768C44.8177 108.754 44.8802 108.741 44.9228 108.73L45.1828 109.936C45.1004 109.964 44.9825 109.996 44.8291 110.03C44.6785 110.064 44.4938 110.084 44.2751 110.089C43.8887 110.101 43.5407 110.043 43.2311 109.915C42.9214 109.784 42.6757 109.582 42.4938 109.31C42.3149 109.037 42.2268 108.696 42.2296 108.287V101.886ZM48.1051 110.132C47.6903 110.132 47.3167 110.058 46.9844 109.911C46.6548 109.76 46.3934 109.538 46.2003 109.246C46.0099 108.953 45.9148 108.592 45.9148 108.163C45.9148 107.794 45.9829 107.489 46.1193 107.247C46.2557 107.006 46.4417 106.812 46.6775 106.668C46.9133 106.523 47.179 106.413 47.4744 106.339C47.7727 106.263 48.0809 106.207 48.3991 106.173C48.7826 106.134 49.0937 106.098 49.3324 106.067C49.571 106.033 49.7443 105.982 49.8523 105.913C49.963 105.842 50.0184 105.733 50.0184 105.585V105.56C50.0184 105.239 49.9233 104.99 49.7329 104.814C49.5426 104.638 49.2684 104.55 48.9105 104.55C48.5326 104.55 48.2329 104.632 48.0113 104.797C47.7926 104.962 47.6449 105.156 47.5682 105.381L46.1278 105.176C46.2415 104.778 46.429 104.446 46.6903 104.179C46.9517 103.909 47.2713 103.707 47.6491 103.574C48.027 103.438 48.4446 103.369 48.902 103.369C49.2173 103.369 49.5312 103.406 49.8437 103.48C50.1562 103.554 50.4417 103.676 50.7003 103.847C50.9588 104.014 51.1662 104.243 51.3224 104.533C51.4815 104.822 51.5611 105.185 51.5611 105.619V110H50.0781V109.101H50.027C49.9332 109.283 49.8011 109.453 49.6307 109.612C49.463 109.768 49.2514 109.895 48.9957 109.991C48.7429 110.085 48.446 110.132 48.1051 110.132ZM48.5057 108.999C48.8153 108.999 49.0838 108.937 49.3111 108.815C49.5383 108.69 49.713 108.526 49.8352 108.321C49.9602 108.116 50.0227 107.893 50.0227 107.652V106.881C49.9744 106.92 49.892 106.957 49.7755 106.991C49.6619 107.026 49.5341 107.055 49.392 107.081C49.25 107.107 49.1094 107.129 48.9701 107.149C48.8309 107.169 48.7102 107.186 48.6079 107.2C48.3778 107.232 48.1719 107.283 47.99 107.354C47.8082 107.425 47.6648 107.524 47.5596 107.652C47.4545 107.777 47.402 107.939 47.402 108.138C47.402 108.422 47.5057 108.636 47.713 108.781C47.9204 108.926 48.1846 108.999 48.5057 108.999Z" fill="black"/>
<path d="M158.105 104.217H156.511C156.466 103.956 156.382 103.724 156.26 103.523C156.138 103.318 155.986 103.145 155.804 103.003C155.622 102.861 155.415 102.754 155.182 102.683C154.952 102.609 154.703 102.572 154.436 102.572C153.962 102.572 153.541 102.692 153.175 102.93C152.808 103.166 152.521 103.513 152.314 103.97C152.106 104.425 152.003 104.98 152.003 105.636C152.003 106.304 152.106 106.866 152.314 107.324C152.524 107.778 152.811 108.122 153.175 108.355C153.541 108.585 153.96 108.7 154.432 108.7C154.693 108.7 154.937 108.666 155.165 108.598C155.395 108.527 155.601 108.423 155.783 108.287C155.967 108.151 156.122 107.983 156.247 107.784C156.375 107.585 156.463 107.358 156.511 107.102L158.105 107.111C158.045 107.526 157.916 107.915 157.717 108.278C157.521 108.642 157.264 108.963 156.946 109.241C156.628 109.517 156.256 109.733 155.829 109.889C155.403 110.043 154.93 110.119 154.41 110.119C153.643 110.119 152.959 109.942 152.356 109.587C151.754 109.232 151.28 108.719 150.933 108.048C150.587 107.378 150.413 106.574 150.413 105.636C150.413 104.696 150.588 103.892 150.937 103.224C151.287 102.554 151.763 102.041 152.365 101.686C152.967 101.331 153.649 101.153 154.41 101.153C154.896 101.153 155.348 101.222 155.766 101.358C156.183 101.494 156.555 101.695 156.882 101.959C157.209 102.22 157.477 102.541 157.687 102.922C157.901 103.3 158.04 103.732 158.105 104.217ZM160.895 106.165V110H159.353V101.273H160.861V104.567H160.938C161.091 104.197 161.329 103.906 161.65 103.693C161.973 103.477 162.385 103.369 162.885 103.369C163.34 103.369 163.736 103.464 164.074 103.655C164.412 103.845 164.674 104.124 164.858 104.49C165.046 104.857 165.14 105.304 165.14 105.832V110H163.597V106.071C163.597 105.631 163.483 105.288 163.256 105.044C163.032 104.797 162.716 104.673 162.31 104.673C162.037 104.673 161.793 104.733 161.577 104.852C161.364 104.969 161.196 105.138 161.074 105.359C160.955 105.581 160.895 105.849 160.895 106.165ZM168.464 110.132C168.049 110.132 167.675 110.058 167.343 109.911C167.013 109.76 166.752 109.538 166.559 109.246C166.368 108.953 166.273 108.592 166.273 108.163C166.273 107.794 166.341 107.489 166.478 107.247C166.614 107.006 166.8 106.812 167.036 106.668C167.272 106.523 167.537 106.413 167.833 106.339C168.131 106.263 168.439 106.207 168.758 106.173C169.141 106.134 169.452 106.098 169.691 106.067C169.929 106.033 170.103 105.982 170.211 105.913C170.322 105.842 170.377 105.733 170.377 105.585V105.56C170.377 105.239 170.282 104.99 170.091 104.814C169.901 104.638 169.627 104.55 169.269 104.55C168.891 104.55 168.591 104.632 168.37 104.797C168.151 104.962 168.003 105.156 167.927 105.381L166.486 105.176C166.6 104.778 166.787 104.446 167.049 104.179C167.31 103.909 167.63 103.707 168.008 103.574C168.385 103.438 168.803 103.369 169.26 103.369C169.576 103.369 169.89 103.406 170.202 103.48C170.515 103.554 170.8 103.676 171.059 103.847C171.317 104.014 171.525 104.243 171.681 104.533C171.84 104.822 171.92 105.185 171.92 105.619V110H170.437V109.101H170.385C170.292 109.283 170.16 109.453 169.989 109.612C169.822 109.768 169.61 109.895 169.354 109.991C169.101 110.085 168.804 110.132 168.464 110.132ZM168.864 108.999C169.174 108.999 169.442 108.937 169.67 108.815C169.897 108.69 170.072 108.526 170.194 108.321C170.319 108.116 170.381 107.893 170.381 107.652V106.881C170.333 106.92 170.251 106.957 170.134 106.991C170.02 107.026 169.893 107.055 169.751 107.081C169.608 107.107 169.468 107.129 169.329 107.149C169.189 107.169 169.069 107.186 168.966 107.2C168.736 107.232 168.53 107.283 168.349 107.354C168.167 107.425 168.023 107.524 167.918 107.652C167.813 107.777 167.76 107.939 167.76 108.138C167.76 108.422 167.864 108.636 168.072 108.781C168.279 108.926 168.543 108.999 168.864 108.999ZM173.339 110V103.455H174.881V110H173.339ZM174.114 102.526C173.87 102.526 173.66 102.445 173.484 102.283C173.307 102.118 173.219 101.92 173.219 101.69C173.219 101.457 173.307 101.26 173.484 101.098C173.66 100.933 173.87 100.851 174.114 100.851C174.361 100.851 174.572 100.933 174.745 101.098C174.921 101.26 175.009 101.457 175.009 101.69C175.009 101.92 174.921 102.118 174.745 102.283C174.572 102.445 174.361 102.526 174.114 102.526ZM177.878 106.165V110H176.336V103.455H177.81V104.567H177.887C178.037 104.2 178.277 103.909 178.607 103.693C178.939 103.477 179.35 103.369 179.838 103.369C180.29 103.369 180.684 103.466 181.019 103.659C181.357 103.852 181.618 104.132 181.803 104.499C181.99 104.865 182.083 105.31 182.08 105.832V110H180.537V106.071C180.537 105.634 180.424 105.291 180.196 105.044C179.972 104.797 179.661 104.673 179.263 104.673C178.993 104.673 178.753 104.733 178.543 104.852C178.336 104.969 178.172 105.138 178.053 105.359C177.936 105.581 177.878 105.849 177.878 106.165ZM186.371 110.128C185.718 110.128 185.157 109.984 184.688 109.697C184.222 109.411 183.863 109.014 183.61 108.509C183.36 108 183.235 107.415 183.235 106.753C183.235 106.088 183.363 105.501 183.618 104.993C183.874 104.482 184.235 104.084 184.701 103.8C185.169 103.513 185.723 103.369 186.363 103.369C186.894 103.369 187.364 103.467 187.773 103.663C188.185 103.857 188.513 104.131 188.758 104.486C189.002 104.838 189.141 105.25 189.175 105.722H187.701C187.641 105.406 187.499 105.143 187.275 104.933C187.053 104.72 186.756 104.614 186.384 104.614C186.069 104.614 185.792 104.699 185.553 104.869C185.314 105.037 185.128 105.278 184.995 105.594C184.864 105.909 184.799 106.287 184.799 106.727C184.799 107.173 184.864 107.557 184.995 107.878C185.125 108.196 185.309 108.442 185.544 108.615C185.783 108.786 186.063 108.871 186.384 108.871C186.611 108.871 186.814 108.828 186.993 108.743C187.175 108.655 187.327 108.528 187.449 108.364C187.571 108.199 187.655 107.999 187.701 107.763H189.175C189.138 108.226 189.002 108.636 188.766 108.994C188.53 109.349 188.209 109.628 187.803 109.83C187.397 110.028 186.919 110.128 186.371 110.128ZM193.165 110.128C192.526 110.128 191.972 109.987 191.503 109.706C191.034 109.425 190.671 109.031 190.412 108.526C190.156 108.02 190.029 107.429 190.029 106.753C190.029 106.077 190.156 105.484 190.412 104.976C190.671 104.467 191.034 104.072 191.503 103.791C191.972 103.51 192.526 103.369 193.165 103.369C193.804 103.369 194.358 103.51 194.827 103.791C195.296 104.072 195.658 104.467 195.914 104.976C196.172 105.484 196.301 106.077 196.301 106.753C196.301 107.429 196.172 108.02 195.914 108.526C195.658 109.031 195.296 109.425 194.827 109.706C194.358 109.987 193.804 110.128 193.165 110.128ZM193.174 108.892C193.52 108.892 193.81 108.797 194.043 108.607C194.276 108.413 194.449 108.155 194.563 107.831C194.679 107.507 194.737 107.146 194.737 106.749C194.737 106.348 194.679 105.986 194.563 105.662C194.449 105.335 194.276 105.075 194.043 104.882C193.81 104.689 193.52 104.592 193.174 104.592C192.818 104.592 192.523 104.689 192.287 104.882C192.054 105.075 191.879 105.335 191.763 105.662C191.649 105.986 191.593 106.348 191.593 106.749C191.593 107.146 191.649 107.507 191.763 107.831C191.879 108.155 192.054 108.413 192.287 108.607C192.523 108.797 192.818 108.892 193.174 108.892ZM199.908 110.115C199.393 110.115 198.933 109.983 198.527 109.719C198.121 109.455 197.8 109.071 197.564 108.568C197.328 108.065 197.21 107.455 197.21 106.736C197.21 106.009 197.329 105.395 197.568 104.895C197.81 104.392 198.135 104.013 198.544 103.757C198.953 103.499 199.409 103.369 199.912 103.369C200.295 103.369 200.611 103.435 200.858 103.565C201.105 103.693 201.301 103.848 201.446 104.03C201.591 104.209 201.703 104.378 201.783 104.537H201.847V101.273H203.393V110H201.876V108.969H201.783C201.703 109.128 201.588 109.297 201.437 109.476C201.287 109.652 201.088 109.803 200.841 109.928C200.594 110.053 200.283 110.115 199.908 110.115ZM200.338 108.849C200.665 108.849 200.943 108.761 201.173 108.585C201.403 108.406 201.578 108.158 201.697 107.839C201.817 107.521 201.876 107.151 201.876 106.727C201.876 106.304 201.817 105.936 201.697 105.624C201.581 105.311 201.408 105.068 201.178 104.895C200.95 104.722 200.67 104.635 200.338 104.635C199.994 104.635 199.707 104.724 199.477 104.903C199.247 105.082 199.074 105.33 198.957 105.645C198.841 105.96 198.783 106.321 198.783 106.727C198.783 107.136 198.841 107.501 198.957 107.822C199.077 108.141 199.251 108.392 199.481 108.577C199.714 108.759 200 108.849 200.338 108.849ZM207.803 110.128C207.147 110.128 206.58 109.991 206.103 109.719C205.628 109.443 205.263 109.054 205.008 108.551C204.752 108.045 204.624 107.45 204.624 106.766C204.624 106.092 204.752 105.501 205.008 104.993C205.266 104.482 205.627 104.084 206.09 103.8C206.553 103.513 207.097 103.369 207.722 103.369C208.125 103.369 208.506 103.435 208.864 103.565C209.225 103.693 209.543 103.892 209.819 104.162C210.097 104.432 210.316 104.776 210.475 105.193C210.634 105.608 210.713 106.102 210.713 106.676V107.149H205.348V106.109H209.235C209.232 105.814 209.168 105.551 209.043 105.321C208.918 105.088 208.743 104.905 208.519 104.771C208.297 104.638 208.039 104.571 207.743 104.571C207.428 104.571 207.151 104.648 206.912 104.801C206.674 104.952 206.488 105.151 206.354 105.398C206.223 105.642 206.157 105.911 206.154 106.203V107.111C206.154 107.491 206.223 107.818 206.363 108.091C206.502 108.361 206.696 108.568 206.946 108.713C207.196 108.855 207.489 108.926 207.824 108.926C208.049 108.926 208.252 108.895 208.434 108.832C208.615 108.767 208.773 108.672 208.907 108.547C209.04 108.422 209.141 108.267 209.209 108.082L210.65 108.244C210.559 108.625 210.385 108.957 210.13 109.241C209.877 109.523 209.553 109.741 209.158 109.898C208.763 110.051 208.311 110.128 207.803 110.128Z" fill="black"/>
<path d="M338.271 164V155.273H339.852V162.675H343.696V164H338.271ZM347.765 164.128C347.109 164.128 346.542 163.991 346.065 163.719C345.591 163.443 345.226 163.054 344.97 162.551C344.714 162.045 344.586 161.45 344.586 160.766C344.586 160.092 344.714 159.501 344.97 158.993C345.228 158.482 345.589 158.084 346.052 157.8C346.515 157.513 347.059 157.369 347.684 157.369C348.088 157.369 348.468 157.435 348.826 157.565C349.187 157.693 349.505 157.892 349.781 158.162C350.059 158.432 350.278 158.776 350.437 159.193C350.596 159.608 350.676 160.102 350.676 160.676V161.149H345.311V160.109H349.197C349.194 159.814 349.13 159.551 349.005 159.321C348.88 159.088 348.706 158.905 348.481 158.771C348.26 158.638 348.001 158.571 347.706 158.571C347.39 158.571 347.113 158.648 346.875 158.801C346.636 158.952 346.45 159.151 346.316 159.398C346.186 159.642 346.119 159.911 346.116 160.203V161.111C346.116 161.491 346.186 161.818 346.325 162.091C346.464 162.361 346.659 162.568 346.909 162.713C347.159 162.855 347.451 162.926 347.787 162.926C348.011 162.926 348.214 162.895 348.396 162.832C348.578 162.767 348.735 162.672 348.869 162.547C349.003 162.422 349.103 162.267 349.172 162.082L350.612 162.244C350.521 162.625 350.348 162.957 350.092 163.241C349.839 163.523 349.515 163.741 349.12 163.898C348.726 164.051 348.274 164.128 347.765 164.128ZM354.278 164.115C353.764 164.115 353.303 163.983 352.897 163.719C352.491 163.455 352.17 163.071 351.934 162.568C351.698 162.065 351.58 161.455 351.58 160.736C351.58 160.009 351.7 159.395 351.938 158.895C352.18 158.392 352.505 158.013 352.914 157.757C353.323 157.499 353.779 157.369 354.282 157.369C354.666 157.369 354.981 157.435 355.228 157.565C355.475 157.693 355.671 157.848 355.816 158.03C355.961 158.209 356.073 158.378 356.153 158.537H356.217V155.273H357.764V164H356.247V162.969H356.153C356.073 163.128 355.958 163.297 355.808 163.476C355.657 163.652 355.458 163.803 355.211 163.928C354.964 164.053 354.653 164.115 354.278 164.115ZM354.708 162.849C355.035 162.849 355.313 162.761 355.543 162.585C355.774 162.406 355.948 162.158 356.068 161.839C356.187 161.521 356.247 161.151 356.247 160.727C356.247 160.304 356.187 159.936 356.068 159.624C355.951 159.311 355.778 159.068 355.548 158.895C355.32 158.722 355.041 158.635 354.708 158.635C354.364 158.635 354.078 158.724 353.847 158.903C353.617 159.082 353.444 159.33 353.328 159.645C353.211 159.96 353.153 160.321 353.153 160.727C353.153 161.136 353.211 161.501 353.328 161.822C353.447 162.141 353.622 162.392 353.852 162.577C354.085 162.759 354.37 162.849 354.708 162.849ZM362.122 166.591C361.568 166.591 361.092 166.516 360.694 166.365C360.297 166.217 359.977 166.018 359.736 165.768C359.494 165.518 359.327 165.241 359.233 164.938L360.622 164.601C360.685 164.729 360.775 164.855 360.895 164.98C361.014 165.108 361.175 165.213 361.376 165.295C361.581 165.381 361.838 165.423 362.148 165.423C362.585 165.423 362.947 165.317 363.234 165.104C363.521 164.893 363.665 164.547 363.665 164.064V162.824H363.588C363.508 162.983 363.392 163.146 363.239 163.314C363.088 163.482 362.888 163.622 362.638 163.736C362.39 163.849 362.079 163.906 361.704 163.906C361.202 163.906 360.746 163.788 360.337 163.553C359.93 163.314 359.606 162.959 359.365 162.487C359.126 162.013 359.007 161.419 359.007 160.706C359.007 159.987 359.126 159.381 359.365 158.886C359.606 158.389 359.932 158.013 360.341 157.757C360.75 157.499 361.206 157.369 361.709 157.369C362.092 157.369 362.408 157.435 362.655 157.565C362.905 157.693 363.104 157.848 363.251 158.03C363.399 158.209 363.511 158.378 363.588 158.537H363.673V157.455H365.194V164.107C365.194 164.666 365.061 165.129 364.794 165.496C364.527 165.862 364.162 166.136 363.699 166.318C363.236 166.5 362.71 166.591 362.122 166.591ZM362.135 162.696C362.462 162.696 362.74 162.616 362.97 162.457C363.2 162.298 363.375 162.07 363.494 161.771C363.614 161.473 363.673 161.115 363.673 160.697C363.673 160.286 363.614 159.925 363.494 159.615C363.378 159.305 363.204 159.065 362.974 158.895C362.747 158.722 362.467 158.635 362.135 158.635C361.791 158.635 361.504 158.724 361.274 158.903C361.044 159.082 360.871 159.328 360.754 159.641C360.638 159.95 360.579 160.303 360.579 160.697C360.579 161.098 360.638 161.449 360.754 161.75C360.873 162.048 361.048 162.281 361.278 162.449C361.511 162.614 361.797 162.696 362.135 162.696ZM369.541 164.128C368.885 164.128 368.318 163.991 367.841 163.719C367.366 163.443 367.001 163.054 366.746 162.551C366.49 162.045 366.362 161.45 366.362 160.766C366.362 160.092 366.49 159.501 366.746 158.993C367.004 158.482 367.365 158.084 367.828 157.8C368.291 157.513 368.835 157.369 369.46 157.369C369.864 157.369 370.244 157.435 370.602 157.565C370.963 157.693 371.281 157.892 371.557 158.162C371.835 158.432 372.054 158.776 372.213 159.193C372.372 159.608 372.452 160.102 372.452 160.676V161.149H367.087V160.109H370.973C370.97 159.814 370.906 159.551 370.781 159.321C370.656 159.088 370.482 158.905 370.257 158.771C370.035 158.638 369.777 158.571 369.482 158.571C369.166 158.571 368.889 158.648 368.651 158.801C368.412 158.952 368.226 159.151 368.092 159.398C367.962 159.642 367.895 159.911 367.892 160.203V161.111C367.892 161.491 367.962 161.818 368.101 162.091C368.24 162.361 368.435 162.568 368.685 162.713C368.935 162.855 369.227 162.926 369.562 162.926C369.787 162.926 369.99 162.895 370.172 162.832C370.354 162.767 370.511 162.672 370.645 162.547C370.778 162.422 370.879 162.267 370.947 162.082L372.388 162.244C372.297 162.625 372.124 162.957 371.868 163.241C371.615 163.523 371.291 163.741 370.896 163.898C370.501 164.051 370.05 164.128 369.541 164.128ZM373.625 164V157.455H375.12V158.545H375.189C375.308 158.168 375.513 157.876 375.802 157.672C376.095 157.464 376.429 157.361 376.804 157.361C376.889 157.361 376.984 157.365 377.089 157.374C377.197 157.379 377.287 157.389 377.358 157.403V158.822C377.292 158.8 377.189 158.78 377.047 158.763C376.907 158.743 376.772 158.733 376.642 158.733C376.361 158.733 376.108 158.794 375.883 158.916C375.662 159.036 375.487 159.202 375.359 159.415C375.231 159.628 375.167 159.874 375.167 160.152V164H373.625Z" fill="black"/>
<path d="M158.105 238.217H156.511C156.466 237.956 156.382 237.724 156.26 237.523C156.138 237.318 155.986 237.145 155.804 237.003C155.622 236.861 155.415 236.754 155.182 236.683C154.952 236.609 154.703 236.572 154.436 236.572C153.962 236.572 153.541 236.692 153.175 236.93C152.808 237.166 152.521 237.513 152.314 237.97C152.106 238.425 152.003 238.98 152.003 239.636C152.003 240.304 152.106 240.866 152.314 241.324C152.524 241.778 152.811 242.122 153.175 242.355C153.541 242.585 153.96 242.7 154.432 242.7C154.693 242.7 154.937 242.666 155.165 242.598C155.395 242.527 155.601 242.423 155.783 242.287C155.967 242.151 156.122 241.983 156.247 241.784C156.375 241.585 156.463 241.358 156.511 241.102L158.105 241.111C158.045 241.526 157.916 241.915 157.717 242.278C157.521 242.642 157.264 242.963 156.946 243.241C156.628 243.517 156.256 243.733 155.829 243.889C155.403 244.043 154.93 244.119 154.41 244.119C153.643 244.119 152.959 243.942 152.356 243.587C151.754 243.232 151.28 242.719 150.933 242.048C150.587 241.378 150.413 240.574 150.413 239.636C150.413 238.696 150.588 237.892 150.937 237.224C151.287 236.554 151.763 236.041 152.365 235.686C152.967 235.331 153.649 235.153 154.41 235.153C154.896 235.153 155.348 235.222 155.766 235.358C156.183 235.494 156.555 235.695 156.882 235.959C157.209 236.22 157.477 236.541 157.687 236.922C157.901 237.3 158.04 237.732 158.105 238.217ZM160.895 240.165V244H159.353V235.273H160.861V238.567H160.938C161.091 238.197 161.329 237.906 161.65 237.693C161.973 237.477 162.385 237.369 162.885 237.369C163.34 237.369 163.736 237.464 164.074 237.655C164.412 237.845 164.674 238.124 164.858 238.49C165.046 238.857 165.14 239.304 165.14 239.832V244H163.597V240.071C163.597 239.631 163.483 239.288 163.256 239.044C163.032 238.797 162.716 238.673 162.31 238.673C162.037 238.673 161.793 238.733 161.577 238.852C161.364 238.969 161.196 239.138 161.074 239.359C160.955 239.581 160.895 239.849 160.895 240.165ZM168.464 244.132C168.049 244.132 167.675 244.058 167.343 243.911C167.013 243.76 166.752 243.538 166.559 243.246C166.368 242.953 166.273 242.592 166.273 242.163C166.273 241.794 166.341 241.489 166.478 241.247C166.614 241.006 166.8 240.812 167.036 240.668C167.272 240.523 167.537 240.413 167.833 240.339C168.131 240.263 168.439 240.207 168.758 240.173C169.141 240.134 169.452 240.098 169.691 240.067C169.929 240.033 170.103 239.982 170.211 239.913C170.322 239.842 170.377 239.733 170.377 239.585V239.56C170.377 239.239 170.282 238.99 170.091 238.814C169.901 238.638 169.627 238.55 169.269 238.55C168.891 238.55 168.591 238.632 168.37 238.797C168.151 238.962 168.003 239.156 167.927 239.381L166.486 239.176C166.6 238.778 166.787 238.446 167.049 238.179C167.31 237.909 167.63 237.707 168.008 237.574C168.385 237.438 168.803 237.369 169.26 237.369C169.576 237.369 169.89 237.406 170.202 237.48C170.515 237.554 170.8 237.676 171.059 237.847C171.317 238.014 171.525 238.243 171.681 238.533C171.84 238.822 171.92 239.185 171.92 239.619V244H170.437V243.101H170.385C170.292 243.283 170.16 243.453 169.989 243.612C169.822 243.768 169.61 243.895 169.354 243.991C169.101 244.085 168.804 244.132 168.464 244.132ZM168.864 242.999C169.174 242.999 169.442 242.937 169.67 242.815C169.897 242.69 170.072 242.526 170.194 242.321C170.319 242.116 170.381 241.893 170.381 241.652V240.881C170.333 240.92 170.251 240.957 170.134 240.991C170.02 241.026 169.893 241.055 169.751 241.081C169.608 241.107 169.468 241.129 169.329 241.149C169.189 241.169 169.069 241.186 168.966 241.2C168.736 241.232 168.53 241.283 168.349 241.354C168.167 241.425 168.023 241.524 167.918 241.652C167.813 241.777 167.76 241.939 167.76 242.138C167.76 242.422 167.864 242.636 168.072 242.781C168.279 242.926 168.543 242.999 168.864 242.999ZM173.339 244V237.455H174.881V244H173.339ZM174.114 236.526C173.87 236.526 173.66 236.445 173.484 236.283C173.307 236.118 173.219 235.92 173.219 235.69C173.219 235.457 173.307 235.26 173.484 235.098C173.66 234.933 173.87 234.851 174.114 234.851C174.361 234.851 174.572 234.933 174.745 235.098C174.921 235.26 175.009 235.457 175.009 235.69C175.009 235.92 174.921 236.118 174.745 236.283C174.572 236.445 174.361 236.526 174.114 236.526ZM177.878 240.165V244H176.336V237.455H177.81V238.567H177.887C178.037 238.2 178.277 237.909 178.607 237.693C178.939 237.477 179.35 237.369 179.838 237.369C180.29 237.369 180.684 237.466 181.019 237.659C181.357 237.852 181.618 238.132 181.803 238.499C181.99 238.865 182.083 239.31 182.08 239.832V244H180.537V240.071C180.537 239.634 180.424 239.291 180.196 239.044C179.972 238.797 179.661 238.673 179.263 238.673C178.993 238.673 178.753 238.733 178.543 238.852C178.336 238.969 178.172 239.138 178.053 239.359C177.936 239.581 177.878 239.849 177.878 240.165ZM186.371 244.128C185.718 244.128 185.157 243.984 184.688 243.697C184.222 243.411 183.863 243.014 183.61 242.509C183.36 242 183.235 241.415 183.235 240.753C183.235 240.088 183.363 239.501 183.618 238.993C183.874 238.482 184.235 238.084 184.701 237.8C185.169 237.513 185.723 237.369 186.363 237.369C186.894 237.369 187.364 237.467 187.773 237.663C188.185 237.857 188.513 238.131 188.758 238.486C189.002 238.838 189.141 239.25 189.175 239.722H187.701C187.641 239.406 187.499 239.143 187.275 238.933C187.053 238.72 186.756 238.614 186.384 238.614C186.069 238.614 185.792 238.699 185.553 238.869C185.314 239.037 185.128 239.278 184.995 239.594C184.864 239.909 184.799 240.287 184.799 240.727C184.799 241.173 184.864 241.557 184.995 241.878C185.125 242.196 185.309 242.442 185.544 242.615C185.783 242.786 186.063 242.871 186.384 242.871C186.611 242.871 186.814 242.828 186.993 242.743C187.175 242.655 187.327 242.528 187.449 242.364C187.571 242.199 187.655 241.999 187.701 241.763H189.175C189.138 242.226 189.002 242.636 188.766 242.994C188.53 243.349 188.209 243.628 187.803 243.83C187.397 244.028 186.919 244.128 186.371 244.128ZM193.165 244.128C192.526 244.128 191.972 243.987 191.503 243.706C191.034 243.425 190.671 243.031 190.412 242.526C190.156 242.02 190.029 241.429 190.029 240.753C190.029 240.077 190.156 239.484 190.412 238.976C190.671 238.467 191.034 238.072 191.503 237.791C191.972 237.51 192.526 237.369 193.165 237.369C193.804 237.369 194.358 237.51 194.827 237.791C195.296 238.072 195.658 238.467 195.914 238.976C196.172 239.484 196.301 240.077 196.301 240.753C196.301 241.429 196.172 242.02 195.914 242.526C195.658 243.031 195.296 243.425 194.827 243.706C194.358 243.987 193.804 244.128 193.165 244.128ZM193.174 242.892C193.52 242.892 193.81 242.797 194.043 242.607C194.276 242.413 194.449 242.155 194.563 241.831C194.679 241.507 194.737 241.146 194.737 240.749C194.737 240.348 194.679 239.986 194.563 239.662C194.449 239.335 194.276 239.075 194.043 238.882C193.81 238.689 193.52 238.592 193.174 238.592C192.818 238.592 192.523 238.689 192.287 238.882C192.054 239.075 191.879 239.335 191.763 239.662C191.649 239.986 191.593 240.348 191.593 240.749C191.593 241.146 191.649 241.507 191.763 241.831C191.879 242.155 192.054 242.413 192.287 242.607C192.523 242.797 192.818 242.892 193.174 242.892ZM199.908 244.115C199.393 244.115 198.933 243.983 198.527 243.719C198.121 243.455 197.8 243.071 197.564 242.568C197.328 242.065 197.21 241.455 197.21 240.736C197.21 240.009 197.329 239.395 197.568 238.895C197.81 238.392 198.135 238.013 198.544 237.757C198.953 237.499 199.409 237.369 199.912 237.369C200.295 237.369 200.611 237.435 200.858 237.565C201.105 237.693 201.301 237.848 201.446 238.03C201.591 238.209 201.703 238.378 201.783 238.537H201.847V235.273H203.393V244H201.876V242.969H201.783C201.703 243.128 201.588 243.297 201.437 243.476C201.287 243.652 201.088 243.803 200.841 243.928C200.594 244.053 200.283 244.115 199.908 244.115ZM200.338 242.849C200.665 242.849 200.943 242.761 201.173 242.585C201.403 242.406 201.578 242.158 201.697 241.839C201.817 241.521 201.876 241.151 201.876 240.727C201.876 240.304 201.817 239.936 201.697 239.624C201.581 239.311 201.408 239.068 201.178 238.895C200.95 238.722 200.67 238.635 200.338 238.635C199.994 238.635 199.707 238.724 199.477 238.903C199.247 239.082 199.074 239.33 198.957 239.645C198.841 239.96 198.783 240.321 198.783 240.727C198.783 241.136 198.841 241.501 198.957 241.822C199.077 242.141 199.251 242.392 199.481 242.577C199.714 242.759 200 242.849 200.338 242.849ZM207.803 244.128C207.147 244.128 206.58 243.991 206.103 243.719C205.628 243.443 205.263 243.054 205.008 242.551C204.752 242.045 204.624 241.45 204.624 240.766C204.624 240.092 204.752 239.501 205.008 238.993C205.266 238.482 205.627 238.084 206.09 237.8C206.553 237.513 207.097 237.369 207.722 237.369C208.125 237.369 208.506 237.435 208.864 237.565C209.225 237.693 209.543 237.892 209.819 238.162C210.097 238.432 210.316 238.776 210.475 239.193C210.634 239.608 210.713 240.102 210.713 240.676V241.149H205.348V240.109H209.235C209.232 239.814 209.168 239.551 209.043 239.321C208.918 239.088 208.743 238.905 208.519 238.771C208.297 238.638 208.039 238.571 207.743 238.571C207.428 238.571 207.151 238.648 206.912 238.801C206.674 238.952 206.488 239.151 206.354 239.398C206.223 239.642 206.157 239.911 206.154 240.203V241.111C206.154 241.491 206.223 241.818 206.363 242.091C206.502 242.361 206.696 242.568 206.946 242.713C207.196 242.855 207.489 242.926 207.824 242.926C208.049 242.926 208.252 242.895 208.434 242.832C208.615 242.767 208.773 242.672 208.907 242.547C209.04 242.422 209.141 242.267 209.209 242.082L210.65 242.244C210.559 242.625 210.385 242.957 210.13 243.241C209.877 243.523 209.553 243.741 209.158 243.898C208.763 244.051 208.311 244.128 207.803 244.128Z" fill="black"/>
<path d="M28.9986 244H26.0412V235.273H29.0583C29.9247 235.273 30.6691 235.447 31.2912 235.797C31.9162 236.143 32.3963 236.642 32.7316 237.293C33.0668 237.943 33.2344 238.722 33.2344 239.628C33.2344 240.537 33.0654 241.318 32.7273 241.972C32.3921 242.625 31.9077 243.126 31.2742 243.476C30.6435 243.825 29.885 244 28.9986 244ZM27.6222 242.632H28.9219C29.5299 242.632 30.037 242.521 30.4432 242.3C30.8495 242.075 31.1549 241.741 31.3594 241.298C31.5639 240.852 31.6662 240.295 31.6662 239.628C31.6662 238.96 31.5639 238.406 31.3594 237.966C31.1549 237.523 30.8523 237.192 30.4517 236.973C30.054 236.751 29.5597 236.641 28.9688 236.641H27.6222V242.632ZM36.4199 244.132C36.0051 244.132 35.6315 244.058 35.2991 243.911C34.9696 243.76 34.7082 243.538 34.515 243.246C34.3247 242.953 34.2295 242.592 34.2295 242.163C34.2295 241.794 34.2977 241.489 34.4341 241.247C34.5704 241.006 34.7565 240.812 34.9923 240.668C35.2281 240.523 35.4937 240.413 35.7892 240.339C36.0875 240.263 36.3957 240.207 36.7139 240.173C37.0974 240.134 37.4085 240.098 37.6471 240.067C37.8858 240.033 38.0591 239.982 38.167 239.913C38.2778 239.842 38.3332 239.733 38.3332 239.585V239.56C38.3332 239.239 38.2381 238.99 38.0477 238.814C37.8574 238.638 37.5832 238.55 37.2253 238.55C36.8474 238.55 36.5477 238.632 36.3261 238.797C36.1074 238.962 35.9596 239.156 35.8829 239.381L34.4426 239.176C34.5562 238.778 34.7437 238.446 35.0051 238.179C35.2665 237.909 35.5861 237.707 35.9639 237.574C36.3417 237.438 36.7594 237.369 37.2167 237.369C37.5321 237.369 37.846 237.406 38.1585 237.48C38.471 237.554 38.7565 237.676 39.015 237.847C39.2736 238.014 39.481 238.243 39.6372 238.533C39.7963 238.822 39.8758 239.185 39.8758 239.619V244H38.3929V243.101H38.3417C38.248 243.283 38.1159 243.453 37.9454 243.612C37.7778 243.768 37.5662 243.895 37.3105 243.991C37.0577 244.085 36.7608 244.132 36.4199 244.132ZM36.8204 242.999C37.1301 242.999 37.3986 242.937 37.6258 242.815C37.8531 242.69 38.0278 242.526 38.15 242.321C38.275 242.116 38.3375 241.893 38.3375 241.652V240.881C38.2892 240.92 38.2068 240.957 38.0903 240.991C37.9767 241.026 37.8488 241.055 37.7068 241.081C37.5648 241.107 37.4241 241.129 37.2849 241.149C37.1457 241.169 37.025 241.186 36.9227 241.2C36.6926 241.232 36.4866 241.283 36.3048 241.354C36.123 241.425 35.9795 241.524 35.8744 241.652C35.7693 241.777 35.7167 241.939 35.7167 242.138C35.7167 242.422 35.8204 242.636 36.0278 242.781C36.2352 242.926 36.4994 242.999 36.8204 242.999ZM44.5634 237.455V238.648H40.8007V237.455H44.5634ZM41.7296 235.886H43.2722V242.031C43.2722 242.239 43.3035 242.398 43.366 242.509C43.4313 242.616 43.5166 242.69 43.6217 242.73C43.7268 242.77 43.8433 242.79 43.9711 242.79C44.0677 242.79 44.1558 242.783 44.2353 242.768C44.3177 242.754 44.3802 242.741 44.4228 242.73L44.6828 243.936C44.6004 243.964 44.4825 243.996 44.3291 244.03C44.1785 244.064 43.9938 244.084 43.7751 244.089C43.3887 244.101 43.0407 244.043 42.7311 243.915C42.4214 243.784 42.1757 243.582 41.9938 243.31C41.8149 243.037 41.7268 242.696 41.7296 242.287V235.886ZM47.6051 244.132C47.1903 244.132 46.8167 244.058 46.4844 243.911C46.1548 243.76 45.8934 243.538 45.7003 243.246C45.5099 242.953 45.4148 242.592 45.4148 242.163C45.4148 241.794 45.4829 241.489 45.6193 241.247C45.7557 241.006 45.9417 240.812 46.1775 240.668C46.4133 240.523 46.679 240.413 46.9744 240.339C47.2727 240.263 47.5809 240.207 47.8991 240.173C48.2826 240.134 48.5937 240.098 48.8324 240.067C49.071 240.033 49.2443 239.982 49.3523 239.913C49.463 239.842 49.5184 239.733 49.5184 239.585V239.56C49.5184 239.239 49.4233 238.99 49.2329 238.814C49.0426 238.638 48.7684 238.55 48.4105 238.55C48.0326 238.55 47.7329 238.632 47.5113 238.797C47.2926 238.962 47.1449 239.156 47.0682 239.381L45.6278 239.176C45.7415 238.778 45.929 238.446 46.1903 238.179C46.4517 237.909 46.7713 237.707 47.1491 237.574C47.527 237.438 47.9446 237.369 48.402 237.369C48.7173 237.369 49.0312 237.406 49.3437 237.48C49.6562 237.554 49.9417 237.676 50.2003 237.847C50.4588 238.014 50.6662 238.243 50.8224 238.533C50.9815 238.822 51.0611 239.185 51.0611 239.619V244H49.5781V243.101H49.527C49.4332 243.283 49.3011 243.453 49.1307 243.612C48.963 243.768 48.7514 243.895 48.4957 243.991C48.2429 244.085 47.946 244.132 47.6051 244.132ZM48.0057 242.999C48.3153 242.999 48.5838 242.937 48.8111 242.815C49.0383 242.69 49.213 242.526 49.3352 242.321C49.4602 242.116 49.5227 241.893 49.5227 241.652V240.881C49.4744 240.92 49.392 240.957 49.2755 240.991C49.1619 241.026 49.0341 241.055 48.892 241.081C48.75 241.107 48.6094 241.129 48.4701 241.149C48.3309 241.169 48.2102 241.186 48.1079 241.2C47.8778 241.232 47.6719 241.283 47.49 241.354C47.3082 241.425 47.1648 241.524 47.0596 241.652C46.9545 241.777 46.902 241.939 46.902 242.138C46.902 242.422 47.0057 242.636 47.213 242.781C47.4204 242.926 47.6846 242.999 48.0057 242.999Z" fill="black"/>
<g filter="url(#filter0_d_156_170)">
<ellipse cx="64" cy="22" rx="14" ry="13" fill="#E6FAFF"/>
</g>
<path d="M69.7041 26.6562C70.1543 26.5638 70.4218 26.0922 70.1935 25.6935C69.7084 24.8464 68.9503 24.1021 67.9831 23.5336C66.7256 22.7945 65.185 22.3939 63.6 22.3939C62.015 22.3939 60.4743 22.7945 59.2169 23.5336C58.2497 24.1021 57.4916 24.8464 57.0065 25.6935C56.7782 26.0922 57.0457 26.5638 57.4958 26.6562V26.6562C61.5233 27.4828 65.6767 27.4828 69.7041 26.6562V26.6562Z" fill="#5D5FEF"/>
<ellipse cx="63.6" cy="17.6667" rx="4" ry="3.93939" fill="#5D5FEF"/>
<g filter="url(#filter1_d_156_170)">
<ellipse cx="70.5" cy="156.5" rx="16.5" ry="15.5" fill="#E6FAFF"/>
</g>
<circle cx="78" cy="159" r="2" fill="#33363F"/>
<circle cx="68" cy="158" r="2" fill="#33363F"/>
<path d="M78 159V161C78 163.761 75.7614 166 73 166H71C68.5 166 68 164.4 68 158" stroke="#33363F" stroke-width="2" stroke-linecap="round"/>
<path d="M68 157C71.9588 157 72.9791 154.062 72.9997 151.093C73.0001 151.036 72.9679 150.984 72.9171 150.959L71 150" stroke="#33363F" stroke-width="2" stroke-linecap="round"/>
<path d="M68 157C64.0412 157 63.0209 154.062 63.0003 151.093C62.9999 151.036 63.0321 150.984 63.0829 150.959L65 150" stroke="#33363F" stroke-width="2" stroke-linecap="round"/>
<path d="M370 106.375V106.375C372.346 106.375 373.518 106.375 374.326 106.995C374.534 107.155 374.72 107.341 374.88 107.549C375.5 108.357 375.5 109.529 375.5 111.875L375.5 118.125C375.5 118.596 375.5 118.832 375.354 118.979C375.207 119.125 374.971 119.125 374.5 119.125L364.5 119.125M370 106.375V106.375C367.654 106.375 366.482 106.375 365.674 106.995C365.466 107.155 365.28 107.341 365.12 107.549C364.5 108.357 364.5 109.529 364.5 111.875L364.5 119.125M370 106.375L346.5 106.375C344.614 106.375 343.672 106.375 343.086 106.961C342.5 107.547 342.5 108.489 342.5 110.375L342.5 144.625L348 142.5L353.5 144.625L359 142.5L364.5 144.625L364.5 119.125" stroke="#222222"/>
<path d="M349.833 114.875L357.167 114.875" stroke="#222222" stroke-linecap="round"/>
<path d="M351.667 123.375H349.833" stroke="#222222" stroke-linecap="round"/>
<path d="M349.833 131.875L355.333 131.875" stroke="#222222" stroke-linecap="round"/>
<g clip-path="url(#clip0_156_170)">
<path d="M479.06 167.637C478.983 167.637 478.908 167.619 478.84 167.586C478.772 167.552 478.713 167.504 478.669 167.444L450.088 128.921C450.039 128.855 450.01 128.779 450.002 128.699C449.994 128.619 450.009 128.539 450.044 128.466L470.745 85.6048C470.78 85.532 470.834 85.4694 470.903 85.4231C470.971 85.3769 471.052 85.3487 471.135 85.3415L520.416 81.0032C520.5 80.9935 520.585 81.0062 520.662 81.0399C520.738 81.0736 520.804 81.1269 520.851 81.194L549.432 119.717C549.48 119.783 549.51 119.859 549.518 119.939C549.525 120.018 549.511 120.099 549.476 120.171L528.776 163.034C528.741 163.107 528.686 163.169 528.617 163.216C528.549 163.262 528.469 163.29 528.385 163.298L479.104 167.635C479.089 167.636 479.074 167.636 479.06 167.636L479.06 167.637ZM451.029 128.609L479.291 166.703L528.022 162.414L548.49 120.029L520.229 81.9349L471.499 86.2242L451.029 128.609Z" fill="#2F3134"/>
<path d="M478.888 167.538L470.978 128.341L470.94 85.4897L509.478 96.2862L549.439 119.948L519.76 145.058L478.888 167.538ZM471.419 86.0991L471.453 128.298L479.232 166.823L519.481 144.691L548.643 120.012L509.252 96.6894L471.419 86.0991Z" fill="#2F3134"/>
<path d="M510.11 98.0818C510.903 98.0818 511.545 97.4703 511.545 96.7158C511.545 95.9614 510.903 95.3499 510.11 95.3499C509.318 95.3499 508.675 95.9614 508.675 96.7158C508.675 97.4703 509.318 98.0818 510.11 98.0818Z" fill="#2F3134"/>
<path d="M510.11 99.5358C509.524 99.5363 508.952 99.3715 508.464 99.0621C507.977 98.7528 507.597 98.3128 507.372 97.7978C507.148 97.2829 507.089 96.7161 507.203 96.1692C507.316 95.6223 507.598 95.1198 508.012 94.7253C508.426 94.3308 508.954 94.0621 509.528 93.9531C510.103 93.8441 510.698 93.8997 511.24 94.1129C511.781 94.3261 512.244 94.6873 512.569 95.1508C512.895 95.6143 513.069 96.1593 513.069 96.7169C513.068 97.4638 512.756 98.18 512.202 98.7084C511.647 99.2369 510.895 99.5344 510.11 99.5358ZM510.11 96.6355L510.021 96.7169C510.022 96.7389 510.031 96.7599 510.048 96.7753C510.065 96.7907 510.087 96.7991 510.11 96.7989V96.6355Z" fill="#2F3134"/>
<path d="M519.691 146.175C520.484 146.175 521.126 145.564 521.126 144.809C521.126 144.055 520.484 143.443 519.691 143.443C518.898 143.443 518.256 144.055 518.256 144.809C518.256 145.564 518.898 146.175 519.691 146.175Z" fill="#2F3134"/>
<path d="M519.691 147.626C519.105 147.627 518.532 147.462 518.045 147.152C517.557 146.843 517.177 146.403 516.953 145.888C516.728 145.373 516.669 144.806 516.783 144.259C516.897 143.712 517.179 143.21 517.593 142.815C518.007 142.421 518.535 142.152 519.109 142.043C519.684 141.934 520.28 141.99 520.821 142.203C521.362 142.416 521.825 142.777 522.15 143.241C522.476 143.705 522.65 144.25 522.65 144.807C522.649 145.554 522.338 146.271 521.783 146.799C521.228 147.328 520.476 147.625 519.691 147.626V147.626ZM519.691 144.726L519.603 144.807C519.603 144.829 519.613 144.85 519.629 144.865C519.646 144.881 519.668 144.889 519.691 144.889V144.726Z" fill="#2F3134"/>
<path d="M479.411 168.546C480.204 168.546 480.846 167.935 480.846 167.18C480.846 166.426 480.204 165.814 479.411 165.814C478.619 165.814 477.976 166.426 477.976 167.18C477.976 167.935 478.619 168.546 479.411 168.546Z" fill="#2F3134"/>
<path d="M479.411 170C478.825 170 478.252 169.835 477.765 169.526C477.277 169.217 476.897 168.776 476.673 168.261C476.448 167.746 476.389 167.18 476.503 166.633C476.617 166.086 476.899 165.583 477.313 165.189C477.727 164.794 478.255 164.525 478.829 164.416C479.404 164.307 480 164.363 480.541 164.576C481.082 164.79 481.545 165.151 481.871 165.615C482.196 166.078 482.37 166.623 482.37 167.181C482.369 167.928 482.058 168.644 481.503 169.173C480.948 169.701 480.196 169.999 479.411 170V170ZM479.411 167.1L479.323 167.181C479.323 167.203 479.333 167.224 479.349 167.239C479.366 167.254 479.388 167.263 479.411 167.262V167.1Z" fill="#2F3134"/>
<path d="M471.179 130.119C471.972 130.119 472.614 129.507 472.614 128.753C472.614 127.999 471.972 127.387 471.179 127.387C470.387 127.387 469.744 127.999 469.744 128.753C469.744 129.507 470.387 130.119 471.179 130.119Z" fill="#2F3134"/>
<path d="M471.18 131.572C470.594 131.573 470.021 131.408 469.534 131.098C469.046 130.789 468.667 130.349 468.442 129.834C468.218 129.319 468.159 128.752 468.273 128.206C468.387 127.659 468.668 127.156 469.082 126.762C469.497 126.368 470.024 126.099 470.599 125.99C471.173 125.881 471.769 125.937 472.31 126.15C472.851 126.364 473.314 126.725 473.639 127.188C473.964 127.652 474.138 128.197 474.138 128.755C474.137 129.501 473.825 130.217 473.271 130.745C472.716 131.274 471.964 131.571 471.18 131.572V131.572ZM471.18 128.672L471.091 128.755C471.091 128.777 471.101 128.797 471.118 128.813C471.134 128.828 471.157 128.836 471.18 128.836V128.672Z" fill="#2F3134"/>
<path d="M549.041 121.416C549.834 121.416 550.476 120.804 550.476 120.05C550.476 119.296 549.834 118.684 549.041 118.684C548.248 118.684 547.606 119.296 547.606 120.05C547.606 120.804 548.248 121.416 549.041 121.416Z" fill="#2F3134"/>
<path d="M549.041 122.869C548.455 122.87 547.883 122.705 547.395 122.395C546.908 122.086 546.528 121.646 546.304 121.131C546.08 120.616 546.021 120.049 546.135 119.502C546.249 118.955 546.531 118.453 546.945 118.059C547.359 117.664 547.887 117.396 548.461 117.287C549.036 117.178 549.631 117.234 550.172 117.447C550.713 117.661 551.176 118.022 551.501 118.486C551.827 118.949 552 119.494 552 120.052C551.999 120.799 551.687 121.515 551.132 122.043C550.578 122.571 549.826 122.868 549.041 122.869ZM549.041 119.969L548.953 120.052C548.953 120.074 548.963 120.095 548.979 120.11C548.996 120.125 549.018 120.133 549.041 120.133V119.969Z" fill="#2F3134"/>
<path d="M471.179 87.1604C471.972 87.1604 472.614 86.5489 472.614 85.7945C472.614 85.04 471.972 84.4285 471.179 84.4285C470.387 84.4285 469.744 85.04 469.744 85.7945C469.744 86.5489 470.387 87.1604 471.179 87.1604Z" fill="#2F3134"/>
<path d="M471.18 88.6144C470.594 88.6149 470.021 88.4501 469.534 88.1408C469.046 87.8314 468.666 87.3914 468.442 86.8765C468.217 86.3615 468.158 85.7948 468.272 85.2478C468.386 84.7009 468.667 84.1984 469.081 83.8039C469.495 83.4095 470.023 83.1407 470.597 83.0317C471.172 82.9227 471.768 82.9783 472.309 83.1915C472.85 83.4047 473.313 83.7659 473.638 84.2294C473.964 84.6929 474.138 85.238 474.138 85.7955C474.137 86.5424 473.825 87.2586 473.271 87.787C472.716 88.3154 471.964 88.613 471.18 88.6144ZM471.18 85.7141L471.091 85.7955C471.091 85.8176 471.101 85.8386 471.117 85.854C471.134 85.8693 471.156 85.8778 471.179 85.8775L471.18 85.7141Z" fill="#2F3134"/>
<path d="M528.341 163.298C528.287 163.299 528.233 163.29 528.181 163.273L490.606 150.648L450.244 129.054C450.178 129.019 450.122 128.969 450.08 128.909C450.038 128.849 450.012 128.781 450.003 128.709C449.994 128.638 450.004 128.565 450.03 128.498C450.057 128.43 450.1 128.37 450.156 128.321L480.523 101.836L520.229 81.0569C520.294 81.0226 520.367 81.0032 520.441 81.0004C520.515 80.9975 520.589 81.0112 520.656 81.0403C520.724 81.0694 520.784 81.113 520.831 81.1676C520.877 81.2222 520.911 81.2864 520.927 81.3552L529.823 118.579L528.82 162.853C528.818 162.925 528.798 162.996 528.762 163.059C528.726 163.123 528.675 163.177 528.613 163.218C528.533 163.271 528.438 163.299 528.341 163.299L528.341 163.298ZM451.29 128.568L491.001 149.821L527.877 162.204L528.878 118.67L520.134 82.1463L481.077 102.571L451.29 128.568Z" fill="#2F3134"/>
<path d="M519.847 144.978L519.651 144.914L470.944 128.797L471.101 128.667L510.189 96.5005L519.847 144.978ZM471.415 128.711L519.534 144.634L510.031 96.9317L471.415 128.711Z" fill="#2F3134"/>
<path d="M490.455 151.074L480.214 101.474L530.293 118.516L490.455 151.074ZM481.478 102.872L491.078 149.365L528.419 118.847L481.478 102.872Z" fill="#2F3134"/>
<path d="M471.597 85.5727L470.762 86.0193L480.429 102.396L481.264 101.95L471.597 85.5727Z" fill="#2F3134"/>
<path d="M479.007 166.935L490.363 149.972L491.17 150.464L479.814 167.426L479.007 166.935Z" fill="#2F3134"/>
<path d="M529.391 118.226L529.321 119.135L549.006 120.503L549.076 119.595L529.391 118.226Z" fill="#2F3134"/>
</g>
<path d="M445 183.733L447.46 183.72L447.482 187.833L452.261 187.808L452.239 183.695L454.699 183.682L454.758 194.715L452.298 194.728L452.272 189.96L447.493 189.985L447.519 194.753L445.059 194.766L445 183.733Z" fill="#2F3134"/>
<path d="M459.59 189.984L455.361 183.679L458.42 183.663L460.808 187.78L463.294 183.637L466.211 183.623L462.051 189.971L462.075 194.677L459.615 194.69L459.59 189.984Z" fill="#2F3134"/>
<path d="M466.873 183.619L471.021 183.598C471.572 183.592 472.121 183.641 472.662 183.745C473.143 183.833 473.602 184.013 474.014 184.275C474.403 184.533 474.72 184.886 474.933 185.299C475.179 185.806 475.298 186.364 475.281 186.926C475.302 187.482 475.197 188.037 474.975 188.548C474.783 188.965 474.486 189.326 474.113 189.597C473.721 189.87 473.276 190.06 472.806 190.156C472.268 190.272 471.718 190.33 471.167 190.329L469.369 190.338L469.392 194.639L466.932 194.652L466.873 183.619ZM469.359 188.281L470.999 188.273C471.213 188.272 471.427 188.25 471.637 188.207C471.832 188.168 472.018 188.096 472.188 187.993C472.351 187.893 472.486 187.753 472.58 187.587C472.685 187.387 472.736 187.164 472.726 186.939C472.736 186.698 472.666 186.46 472.526 186.262C472.393 186.091 472.218 185.955 472.018 185.867C471.801 185.772 471.569 185.713 471.332 185.692C471.091 185.668 470.849 185.656 470.606 185.657L469.344 185.663L469.359 188.281Z" fill="#2F3134"/>
<path d="M476.746 183.568L484.331 183.529L484.343 185.772L479.218 185.799L479.229 187.856L484.07 187.83L484.082 190.074L479.24 190.1L479.252 192.344L484.662 192.316L484.673 194.56L476.804 194.601L476.746 183.568Z" fill="#2F3134"/>
<path d="M486.428 183.518L490.75 183.495C491.292 183.489 491.834 183.541 492.366 183.65C492.844 183.744 493.3 183.926 493.71 184.188C494.099 184.446 494.416 184.799 494.629 185.212C494.874 185.714 494.993 186.266 494.977 186.823C495.002 187.534 494.79 188.233 494.373 188.813C493.935 189.379 493.292 189.754 492.58 189.859L495.444 194.503L492.494 194.519L490.138 190.121L488.924 190.127L488.947 194.537L486.487 194.55L486.428 183.518ZM488.913 188.07L490.364 188.063C490.585 188.061 490.819 188.053 491.066 188.036C491.295 188.022 491.521 187.974 491.735 187.892C491.931 187.815 492.102 187.688 492.23 187.523C492.371 187.317 492.439 187.07 492.422 186.821C492.433 186.585 492.371 186.352 492.246 186.152C492.133 185.99 491.981 185.859 491.802 185.772C491.608 185.681 491.4 185.621 491.186 185.596C490.961 185.566 490.735 185.552 490.508 185.553L488.899 185.561L488.913 188.07Z" fill="#2F3134"/>
<path d="M496.584 183.464L499.044 183.452L499.09 192.241L503.648 192.217L503.66 194.461L496.642 194.497L496.584 183.464Z" fill="#2F3134"/>
<path d="M504.894 183.421L512.48 183.382L512.492 185.626L507.366 185.652L507.377 187.71L512.219 187.685L512.231 189.928L507.389 189.953L507.401 192.198L512.81 192.17L512.822 194.413L504.953 194.454L504.894 183.421Z" fill="#2F3134"/>
<path d="M514.577 183.371L518.267 183.351C519.125 183.343 519.981 183.438 520.816 183.634C521.577 183.807 522.294 184.13 522.927 184.582C523.537 185.031 524.03 185.619 524.363 186.296C524.741 187.1 524.926 187.979 524.905 188.865C524.926 189.681 524.755 190.49 524.404 191.229C524.08 191.894 523.612 192.482 523.034 192.95C522.441 193.424 521.764 193.784 521.037 194.012C520.268 194.257 519.465 194.382 518.657 194.383L514.636 194.404L514.577 183.371ZM517.084 192.148L518.362 192.14C518.895 192.141 519.426 192.081 519.946 191.961C520.403 191.858 520.835 191.661 521.212 191.385C521.575 191.11 521.863 190.75 522.05 190.337C522.266 189.838 522.368 189.297 522.349 188.754C522.358 188.266 522.25 187.783 522.034 187.345C521.837 186.957 521.552 186.62 521.201 186.359C520.833 186.092 520.417 185.896 519.976 185.782C519.495 185.653 518.999 185.59 518.5 185.594L517.049 185.602L517.084 192.148Z" fill="#2F3134"/>
<path d="M536.553 193.51C535.839 193.885 535.076 194.162 534.286 194.333C533.494 194.504 532.686 194.592 531.875 194.595C531.053 194.608 530.235 194.475 529.46 194.203C528.749 193.952 528.098 193.56 527.546 193.051C526.998 192.539 526.567 191.917 526.282 191.227C525.674 189.685 525.665 187.975 526.256 186.427C526.535 185.734 526.959 185.108 527.501 184.589C528.047 184.074 528.695 183.676 529.403 183.419C530.174 183.138 530.991 182.996 531.813 183.001C532.646 182.989 533.478 183.092 534.282 183.307C535.022 183.509 535.703 183.882 536.268 184.396L534.543 186.275C534.22 185.944 533.832 185.681 533.403 185.501C532.9 185.313 532.363 185.225 531.825 185.245C531.336 185.24 530.851 185.333 530.399 185.517C529.987 185.688 529.615 185.941 529.307 186.262C528.999 186.589 528.763 186.976 528.612 187.397C528.29 188.319 528.296 189.322 528.627 190.24C528.783 190.656 529.024 191.037 529.334 191.358C529.645 191.677 530.02 191.927 530.434 192.094C530.888 192.273 531.374 192.36 531.863 192.351C532.332 192.357 532.8 192.294 533.25 192.164C533.571 192.071 533.882 191.946 534.178 191.793L534.168 190.001L532.166 190.011L532.154 187.767L536.522 187.744L536.553 193.51Z" fill="#2F3134"/>
<path d="M538.596 183.246L546.181 183.206L546.193 185.45L541.068 185.477L541.079 187.534L545.921 187.509L545.933 189.753L541.091 189.778L541.103 192.022L546.512 191.994L546.524 194.238L538.655 194.279L538.596 183.246Z" fill="#2F3134"/>
<path d="M548.278 183.196L552.599 183.174C553.142 183.168 553.684 183.22 554.216 183.329C554.695 183.423 555.15 183.605 555.56 183.867C555.95 184.125 556.267 184.477 556.48 184.89C556.724 185.392 556.844 185.945 556.828 186.502C556.852 187.213 556.64 187.912 556.223 188.492C555.785 189.058 555.142 189.433 554.43 189.538L557.294 194.182L554.345 194.197L551.988 189.8L550.773 189.806L550.796 194.216L548.337 194.229L548.278 183.196ZM550.762 187.749L552.214 187.741C552.434 187.74 552.668 187.731 552.915 187.714C553.145 187.701 553.37 187.653 553.584 187.57C553.78 187.494 553.951 187.367 554.079 187.202C554.221 186.996 554.289 186.749 554.273 186.5C554.283 186.264 554.222 186.031 554.096 185.83C553.983 185.669 553.83 185.538 553.652 185.451C553.458 185.359 553.25 185.299 553.036 185.275C552.811 185.245 552.584 185.231 552.357 185.231L550.749 185.24L550.762 187.749Z" fill="#2F3134"/>
<path d="M442.354 125.354C442.549 125.158 442.549 124.842 442.354 124.646L439.172 121.464C438.976 121.269 438.66 121.269 438.464 121.464C438.269 121.66 438.269 121.976 438.464 122.172L441.293 125L438.464 127.828C438.269 128.024 438.269 128.34 438.464 128.536C438.66 128.731 438.976 128.731 439.172 128.536L442.354 125.354ZM381 125.5H442V124.5H381V125.5Z" fill="black"/>
<defs>
<filter id="filter0_d_156_170" x="41" y="0" width="46" height="44" filterUnits="userSpaceOnUse" color-interpolation-filters="sRGB">
<feFlood flood-opacity="0" result="BackgroundImageFix"/>
<feColorMatrix in="SourceAlpha" type="matrix" values="0 0 0 0 0 0 0 0 0 0 0 0 0 0 0 0 0 0 127 0" result="hardAlpha"/>
<feOffset/>
<feGaussianBlur stdDeviation="4.5"/>
<feComposite in2="hardAlpha" operator="out"/>
<feColorMatrix type="matrix" values="0 0 0 0 0 0 0 0 0 0 0 0 0 0 0 0 0 0 0.25 0"/>
<feBlend mode="normal" in2="BackgroundImageFix" result="effect1_dropShadow_156_170"/>
<feBlend mode="normal" in="SourceGraphic" in2="effect1_dropShadow_156_170" result="shape"/>
</filter>
<filter id="filter1_d_156_170" x="45" y="132" width="51" height="49" filterUnits="userSpaceOnUse" color-interpolation-filters="sRGB">
<feFlood flood-opacity="0" result="BackgroundImageFix"/>
<feColorMatrix in="SourceAlpha" type="matrix" values="0 0 0 0 0 0 0 0 0 0 0 0 0 0 0 0 0 0 127 0" result="hardAlpha"/>
<feOffset/>
<feGaussianBlur stdDeviation="4.5"/>
<feComposite in2="hardAlpha" operator="out"/>
<feColorMatrix type="matrix" values="0 0 0 0 0 0 0 0 0 0 0 0 0 0 0 0 0 0 0.25 0"/>
<feBlend mode="normal" in2="BackgroundImageFix" result="effect1_dropShadow_156_170"/>
<feBlend mode="normal" in="SourceGraphic" in2="effect1_dropShadow_156_170" result="shape"/>
</filter>
<clipPath id="clip0_156_170">
<rect width="102" height="89" fill="white" transform="translate(450 81)"/>
</clipPath>
</defs>
</svg>
